#!OML:ASF F:\VICON\USERDATA\INSTALL\rory3\rory3.ASF
:FULLY-SPECIFIED
:DEGREES
404
root 3.09529 24.3489 -0.795569 -162.455 -31.507 173.894
lowerback 10.4793 -2.82003 -2.38493
upperback 2.22374 -4.07679 2.5218
thorax -3.19282 -2.07469 4.49591
lowerneck -17.3311 -1.88627 -10.6902
upperneck 36.6279 -3.64799 4.10398
head 16.2878 -3.2864 2.75417
rclavicle -7.71285e-014 -1.35174e-014
rhumerus -0.214906 -10.0267 -68.4364
rradius 118.866
rwrist -20.6711
rhand -17.799 -12.9629
rfingers 7.12502
rthumb 8.4643 -42.7733
lclavicle -7.71285e-014 -1.35174e-014
lhumerus 8.81868 -18.2235 84.4206
lradius 71.0492
lwrist 21.0622
lhand -20.7455 20.14
lfingers 7.12502
lthumb 5.62004 50.0455
rfemur -19.7709 -10.2963 23.1226
rtibia 14.314
rfoot -1.20961 -12.4252
rtoes 15.4616
lfemur -73.3914 11.2826 -37.5662
ltibia 92.2312
lfoot -12.5993 -22.6082
ltoes -1.93118
405
root 3.08312 24.3394 -0.807627 -162.435 -31.4067 174.004
lowerback 10.4303 -2.83947 -2.40698
upperback 2.16821 -4.10001 2.50066
thorax -3.22155 -2.08252 4.48792
lowerneck -17.2384 -1.84936 -10.5946
upperneck 36.6194 -3.63139 4.0547
head 16.2546 -3.27783 2.71822
rclavicle 8.50798e-014 2.06736e-014
rhumerus -0.354113 -9.95989 -68.3738
rradius 118.829
rwrist -20.8856
rhand -17.9181 -12.8074
rfingers 7.12502
rthumb 8.34937 -42.6224
lclavicle 8.50798e-014 2.06736e-014
lhumerus 8.59455 -18.1761 84.4055
lradius 71.4028
lwrist 20.9301
lhand -20.9089 20.2108
lfingers 7.12502
lthumb 5.46231 50.1204
rfemur -19.8513 -10.319 23.2446
rtibia 14.4045
rfoot -1.30096 -12.3033
rtoes 15.782
lfemur -73.2499 11.3078 -37.5607
ltibia 92.5966
lfoot -13.1185 -22.3931
ltoes -0.235858
406
root 3.07178 24.3341 -0.82146 -162.356 -31.3477 174.041
lowerback 10.3953 -2.88785 -2.48803
upperback 2.11069 -4.16818 2.47342
thorax -3.25209 -2.112 4.51308
lowerneck -17.1585 -1.82966 -10.544
upperneck 36.5518 -3.63477 4.07683
head 16.1993 -3.26825 2.71797
rclavicle -7.95139e-016 -1.59028e-015
rhumerus -0.537251 -9.89 -68.3534
rradius 118.848
rwrist -21.0546
rhand -18.0411 -12.7692
rfingers 7.12502
rthumb 8.23071 -42.5889
lclavicle -7.95139e-016 -1.59028e-015
lhumerus 8.25926 -18.1343 84.3533
lradius 71.9181
lwrist 20.8932
lhand -21.0403 20.3067
lfingers 7.12502
lthumb 5.33548 50.2195
rfemur -19.9368 -10.2702 23.2807
rtibia 14.4848
rfoot -1.51504 -12.2354
rtoes 15.9541
lfemur -73.0886 11.3125 -37.6852
ltibia 92.8317
lfoot -13.0599 -22.7652
ltoes 3.7214
407
root 3.06077 24.3354 -0.838323 -162.382 -31.2525 174.129
lowerback 10.4217 -2.93356 -2.51343
upperback 2.09441 -4.23187 2.41749
thorax -3.28018 -2.14157 4.47892
lowerneck -17.2248 -1.81419 -10.5119
upperneck 36.571 -3.64154 4.13836
head 16.2257 -3.25919 2.73777
rclavicle 2.10712e-014 1.74931e-014
rhumerus -0.781524 -9.846 -68.462
rradius 118.949
rwrist -21.1157
rhand -17.9234 -12.7788
rfingers 7.12502
rthumb 8.34426 -42.594
lclavicle 2.10712e-014 1.74931e-014
lhumerus 7.90588 -18.0966 84.2558
lradius 72.4468
lwrist 20.7621
lhand -21.041 20.4068
lfingers 7.12502
lthumb 5.33478 50.3196
rfemur -19.9141 -10.0961 23.3002
rtibia 14.565
rfoot -1.71109 -12.2207
rtoes 15.5872
lfemur -72.8155 11.4382 -37.7743
ltibia 92.9398
lfoot -13.4742 -22.7904
ltoes 5.15535
408
root 3.04846 24.3392 -0.855102 -162.431 -31.1206 174.156
lowerback 10.4476 -2.95409 -2.61392
upperback 2.11803 -4.27307 2.3494
thorax -3.26391 -2.16201 4.46975
lowerneck -17.2513 -1.7981 -10.4081
upperneck 36.516 -3.6145 4.08345
head 16.197 -3.23642 2.69992
rclavicle 1.16885e-013 -1.51076e-014
rhumerus -1.0603 -9.80033 -68.5551
rradius 119.053
rwrist -21.1292
rhand -17.8541 -12.9346
rfingers 7.12502
rthumb 8.41115 -42.7472
lclavicle 1.16885e-013 -1.51076e-014
lhumerus 7.56584 -18.0807 84.1915
lradius 72.9465
lwrist 20.6582
lhand -21.1361 20.7314
lfingers 7.12502
lthumb 5.24295 50.6465
rfemur -19.8428 -9.98895 23.2499
rtibia 14.6833
rfoot -1.71057 -12.1074
rtoes 15.2139
lfemur -72.4494 11.5893 -37.8779
ltibia 92.927
lfoot -14.3398 -22.2184
ltoes 3.76721
409
root 3.03687 24.34 -0.869259 -162.425 -30.9951 174.08
lowerback 10.5268 -2.94842 -2.84065
upperback 2.13174 -4.29398 2.27978
thorax -3.28007 -2.17024 4.53184
lowerneck -17.2796 -1.80536 -10.297
upperneck 36.4478 -3.6312 4.05388
head 16.1671 -3.22535 2.66395
rclavicle -6.16232e-014 -1.66979e-014
rhumerus -1.28418 -9.80172 -68.5886
rradius 119.08
rwrist -21.2578
rhand -18.0554 -13.0095
rfingers 7.12502
rthumb 8.21691 -42.8297
lclavicle -6.16232e-014 -1.66979e-014
lhumerus 7.22018 -18.1218 84.1712
lradius 73.4465
lwrist 20.6133
lhand -21.2157 21.1141
lfingers 7.12502
lthumb 5.16607 51.0312
rfemur -19.818 -9.88622 23.0864
rtibia 14.8476
rfoot -1.82345 -12.0703
rtoes 15.6753
lfemur -72.0582 11.6707 -38.0528
ltibia 92.7846
lfoot -15.0818 -21.7477
ltoes 3.28419
410
root 3.02368 24.3453 -0.887294 -162.367 -30.9107 173.999
lowerback 10.5519 -2.94825 -3.02593
upperback 2.13178 -4.31553 2.21258
thorax -3.28334 -2.1787 4.56994
lowerneck -17.3674 -1.84099 -10.339
upperneck 36.4346 -3.71179 4.21265
head 16.1944 -3.23846 2.72607
rclavicle -5.92378e-014 2.62396e-014
rhumerus -1.54423 -9.85213 -68.5616
rradius 119.064
rwrist -21.4901
rhand -18.1764 -12.8909
rfingers 7.12502
rthumb 8.10008 -42.7157
lclavicle -5.92378e-014 2.62396e-014
lhumerus 6.88749 -18.213 84.2159
lradius 73.9034
lwrist 20.6145
lhand -21.3306 21.4965
lfingers 7.12502
lthumb 5.05512 51.4162
rfemur -19.8853 -9.88243 22.9402
rtibia 15.098
rfoot -1.83078 -11.989
rtoes 15.6265
lfemur -71.6529 11.7263 -38.2196
ltibia 92.4804
lfoot -15.6978 -21.7318
ltoes 4.24529
411
root 3.00894 24.3559 -0.903983 -162.326 -30.9364 173.975
lowerback 10.6079 -2.98931 -3.11584
upperback 2.10432 -4.38014 2.19788
thorax -3.33094 -2.20755 4.61808
lowerneck -17.378 -1.87874 -10.4486
upperneck 36.3614 -3.75296 4.31831
head 16.1698 -3.25022 2.78378
rclavicle 1.07741e-013 -1.19271e-014
rhumerus -1.8806 -9.7704 -68.5639
rradius 119.037
rwrist -21.7595
rhand -18.2871 -12.6345
rfingers 7.12502
rthumb 7.99328 -42.4634
lclavicle 1.07741e-013 -1.19271e-014
lhumerus 6.5453 -18.2154 84.363
lradius 74.2647
lwrist 20.5022
lhand -21.4212 21.7874
lfingers 7.12502
lthumb 4.96767 51.7091
rfemur -19.9761 -9.85813 22.8233
rtibia 15.3807
rfoot -1.7949 -11.9866
rtoes 15.1848
lfemur -71.248 11.6727 -38.2402
ltibia 92.0741
lfoot -16.2057 -21.7064
ltoes 5.01511
412
root 2.98942 24.3714 -0.916028 -162.219 -30.9156 173.87
lowerback 10.6916 -3.06672 -3.17306
upperback 2.0364 -4.48951 2.1166
thorax -3.43932 -2.25504 4.58755
lowerneck -17.4492 -1.85109 -10.48
upperneck 36.3377 -3.67558 4.31408
head 16.1678 -3.21989 2.80156
rclavicle -5.56597e-014 1.98785e-014
rhumerus -2.2096 -9.533 -68.7588
rradius 118.977
rwrist -22.0568
rhand -18.3696 -12.4179
rfingers 7.12502
rthumb 7.9136 -42.2498
lclavicle -5.56597e-014 1.98785e-014
lhumerus 6.19705 -18.1397 84.4109
lradius 74.5433
lwrist 20.3178
lhand -21.4283 21.8743
lfingers 7.12502
lthumb 4.96082 51.7962
rfemur -20.1341 -9.98206 22.6038
rtibia 15.6632
rfoot -1.40889 -11.7599
rtoes 14.1832
lfemur -70.8407 11.5473 -38.3131
ltibia 91.6045
lfoot -16.6459 -21.3825
ltoes 5.42236
